<svg width="18px" height="18px" viewBox="0 0 18 18" version="1.1" xmlns="http://www.w3.org/2000/svg" xmlns:xlink="http://www.w3.org/1999/xlink">
    <title>LinkedIn</title>
    <path d="M5.49,4.19565217 C5.49,4.85613043 4.935,5.39130435 4.25,5.39130435 C3.565,5.39130435 3.01,4.85613043 3.01,4.19565217 C3.01,3.53565217 3.565,3 4.25,3 C4.935,3 5.49,3.53565217 5.49,4.19565217 Z M5.5,6.34782609 L3,6.34782609 L3,14 L5.5,14 L5.5,6.34782609 Z M9.491,6.34782609 L7.007,6.34782609 L7.007,14 L9.4915,14 L9.4915,9.98308696 C9.4915,7.7496087 12.506,7.56691304 12.506,9.98308696 L12.506,14 L15,14 L15,9.15473913 C15,5.38604348 10.539,5.52330435 9.491,7.37847826 L9.491,6.34782609 Z" id="Shape" fill="#000000"></path>
    <rect id="Rectangle" fill="none" x="0" y="0" width="18" height="18"></rect>
</svg>
